<svg width="100" height="100" viewBox="0 0 100 100" fill="none" xmlns="http://www.w3.org/2000/svg">
<path d="M50 15.625C29.2773 15.625 12.1875 31.1328 9.6875 51.1719C11.5234 50.4297 13.5156 50 15.625 50C20.8008 50 25 54.1992 25 59.375V84.375C25 89.5508 20.8008 93.75 15.625 93.75C6.99219 93.75 0 86.7578 0 78.125V56.25C0 28.6328 22.3828 6.25 50 6.25C77.6172 6.25 100 28.6328 100 56.25V78.125C100 86.7578 93.0078 93.75 84.375 93.75C79.1992 93.75 75 89.5508 75 84.375V59.375C75 54.1992 79.1992 50 84.375 50C86.4844 50 88.4766 50.4102 90.3125 51.1719C87.8125 31.1328 70.7227 15.625 50 15.625Z" fill="white"/>
</svg>
