<svg width="24" height="20" viewBox="0 0 24 20" fill="none" xmlns="http://www.w3.org/2000/svg">
<path d="M24 2.25882C23.1166 2.65412 22.1644 2.91388 21.1778 3.03812C22.1874 2.43953 22.9675 1.49082 23.3346 0.350118C22.3824 0.914824 21.327 1.31012 20.2141 1.536C19.3078 0.564706 18.0344 0 16.5889 0C13.8929 0 11.6902 2.16847 11.6902 4.84518C11.6902 5.22918 11.7361 5.60188 11.8164 5.952C7.73231 5.74871 4.0956 3.81741 1.67495 0.892235C1.25048 1.60376 1.00956 2.43953 1.00956 3.32047C1.00956 5.00329 1.86998 6.49412 3.20077 7.34118C2.38623 7.34118 1.62906 7.11529 0.963671 6.77647V6.81035C0.963671 9.15953 2.66157 11.1247 4.91013 11.5652C4.18822 11.7597 3.43032 11.7867 2.69599 11.6442C3.00758 12.607 3.61782 13.4495 4.44094 14.0532C5.26405 14.6569 6.25864 14.9915 7.2849 15.0099C5.54527 16.3657 3.38891 17.0985 1.17017 17.088C0.780115 17.088 0.390057 17.0654 0 17.0202C2.17973 18.3981 4.77247 19.2 7.54876 19.2C16.5889 19.2 21.5564 11.8136 21.5564 5.40988C21.5564 5.19529 21.5564 4.992 21.5449 4.77741C22.5086 4.09976 23.3346 3.24141 24 2.25882Z" fill="#1DA1F2"/>
</svg>
