<svg width="105" height="28" viewBox="0 0 105 28" fill="none" xmlns="http://www.w3.org/2000/svg">
<path d="M14.3339 6.90656C8.25493 -5.60188 2.24507 1.69471 0 6.90656C2.6745 1.87235 8.89961 -3.64406 13.6431 6.90656C20.1991 21.6184 27.7972 12.9356 30.7401 6.90656C33.2159 3.35779 37.7854 -4.01522 43.8651 6.90656C51.5475 20.7074 58.7171 12.1751 61.1349 6.90656C63.5526 1.63805 69.4685 -1.59744 74.4326 6.90656C79.3952 15.4082 85.5798 18.05 91.5296 6.90656C97.2271 -2.99808 101.373 2.48781 105 6.90656C98.0921 -5.83982 93.0839 3.67748 90.6661 6.90656C88.2484 10.1356 83.4128 20.1628 75.4688 6.90656C67.5716 -6.27132 61.3811 4.90335 60.2903 6.87242L60.2714 6.90656C59.2352 8.77602 52.5 20.8426 44.9013 6.90656C37.3026 -7.02948 30.7401 5.37699 29.8766 6.90656C29.0132 8.43612 21.9326 22.5421 14.3339 6.90656Z" fill="#A855F7" fill-opacity="0.2"/>
<path d="M14.3339 19.9066C8.25493 7.39812 2.24507 14.6947 0 19.9066C2.6745 14.8724 8.89961 9.35594 13.6431 19.9066C20.1991 34.6184 27.7972 25.9356 30.7401 19.9066C33.2159 16.3578 37.7854 8.98478 43.8651 19.9066C51.5475 33.7074 58.7171 25.1751 61.1349 19.9066C63.5526 14.6381 69.4685 11.4026 74.4326 19.9066C79.3952 28.4082 85.5798 31.05 91.5296 19.9066C97.2271 10.0019 101.373 15.4878 105 19.9066C98.0921 7.16018 93.0839 16.6775 90.6661 19.9066C88.2484 23.1356 83.4128 33.1628 75.4688 19.9066C67.5716 6.72868 61.3811 17.9033 60.2903 19.8724L60.2714 19.9066C59.2352 21.776 52.5 33.8426 44.9013 19.9066C37.3026 5.97052 30.7401 18.377 29.8766 19.9066C29.0132 21.4361 21.9326 35.5421 14.3339 19.9066Z" fill="#A855F7" fill-opacity="0.2"/>
</svg>
