<svg viewBox="0 0 121 12" fill="none" xmlns="http://www.w3.org/2000/svg">
    <path d="M47.484 0C47.2391 0.923077 47.4534 1.87692 47.3309 2.98462C46.7798 2.36923 46.1369 2.4 45.494 2.4C43.7184 2.43077 41.9427 2.46154 40.167 2.4C38.9118 2.33846 39.2486 3.13846 39.2486 3.78462C39.218 4.43077 39.0037 5.26154 40.1977 5.10769C41.6672 4.95385 43.2285 5.38461 44.7287 4.8C44.7287 5.56923 44.7287 6.43077 44.7287 7.29231C43.0755 6.67692 41.3304 7.07692 39.616 7.01538C39.4017 7.01538 39.2792 7.2 39.2486 7.41538C39.218 7.66154 39.218 7.90769 39.218 8.15385C39.2486 10.3385 39.0037 9.90769 40.9324 9.93846C42.555 9.96923 44.1776 9.93846 45.8002 9.93846C46.3819 9.93846 46.9635 10.0308 47.484 9.35385C47.484 10.4308 47.484 11.2615 47.484 12.0308C43.7796 11.4769 40.0752 12 36.3402 11.7231C36.9831 9.93846 36.6463 8.06154 36.6463 6.24615C36.6463 4.4 37.0137 2.49231 36.3096 0.584615C39.3711 0.584615 42.4632 0.615385 45.5553 0.553846C46.0145 0.553846 46.7492 0.923077 46.8717 0.0307692C47.0554 0 47.2697 0 47.484 0Z" fill="#B2B1B1" />
    <path d="M61.4129 11.5385C60.0046 10.3385 59.1168 8.70769 58.0453 7.26154C58.1678 7.10769 58.229 7.01539 58.3208 6.98462C60.6476 6.52308 61.1986 4.83077 60.9537 3.26154C60.7088 1.53846 59.5454 0.584615 57.3412 0.553846C54.5858 0.492308 51.8611 0.523077 49.167 0.523077C49.9017 2.4 49.5038 4.30769 49.5038 6.15385C49.5038 7.96923 49.8405 9.84616 49.1976 11.6615H52.3509C51.7999 10.2769 52.106 8.92308 52.0448 7.63077C52.0142 7.23077 52.3509 7.2 52.6877 7.16923C54.1266 7.10769 55.5655 6.95385 56.239 8.64615C56.3615 8.95385 56.6676 9.2 56.8207 9.50769C57.1269 10.0615 57.7085 10.4923 57.8004 11.1692C57.8922 11.6923 57.8922 11.6923 59.2393 11.6923C59.9128 11.6923 60.5557 11.6923 61.2292 11.6923C61.3823 11.7231 61.4435 11.6923 61.4129 11.5385ZM57.0044 5.32308C56.239 5.38462 55.4736 5.32308 54.7389 5.32308V5.35385C54.3409 5.35385 53.9429 5.35385 53.5143 5.35385C52.0754 5.35385 52.0754 5.35385 52.0754 3.87692C52.0754 2.24615 51.8305 2.4 53.6368 2.4C54.7695 2.4 55.8716 2.36923 56.9738 2.43077C57.8004 2.46154 58.4433 2.83077 58.4739 3.78462C58.5351 4.8 57.8922 5.23077 57.0044 5.32308Z" fill="#B2B1B1" />
    <path d="M120.5 4.46154C119.887 2.09231 118.479 0.76923 116.06 0.646153C113.397 0.523076 110.764 0.615384 108.192 0.615384C108.835 2.46154 108.499 4.36923 108.499 6.21538C108.499 8.03077 108.835 9.87692 108.192 11.6923C110.733 11.6923 113.244 11.7538 115.724 11.6615C118.326 11.5692 119.857 10.2462 120.5 7.81538C120.5 6.70769 120.5 5.56923 120.5 4.46154ZM115.019 9.84615C111.009 10.2462 111.009 10.2462 111.009 6.12308C111.009 5.16923 111.04 4.21538 111.009 3.29231C110.978 2.67692 111.131 2.36923 111.836 2.4C112.907 2.46154 113.979 2.36923 115.019 2.46154C117.071 2.61538 118.081 3.87692 118.081 6.18462C118.112 8.46154 117.101 9.66154 115.019 9.84615Z" fill="#EC1C24" />
    <path d="M67.9347 0.246155C68.547 0.246155 69.1593 0.246155 69.7716 0.246155C71.2411 0.369232 72.5576 1.16923 74.2108 1.26154C73.7821 2.12308 73.3842 2.95385 72.9862 3.78462C71.486 2.27692 69.6798 1.87692 67.6898 2.30769C65.5468 2.76923 64.414 4.30769 64.5365 6.43077C64.6589 8.33846 66.0978 9.75385 68.2103 9.96923C69.4348 10.0923 70.6288 9.93846 71.8228 9.56923C72.5269 9.32308 72.5576 8.83077 72.4963 8.27692C72.4351 7.63077 71.9453 7.81539 71.5779 7.81539C70.6594 7.81539 69.7104 7.66154 68.7613 8.09231C68.7613 7.32308 68.7613 6.58462 68.7613 5.90769C70.7819 6.46154 72.8637 6 74.9149 6.21539C74.5475 7.38462 74.3026 8.52308 74.8843 9.63077C75.1598 10.1538 74.7924 10.2462 74.5169 10.4C71.9759 11.6923 69.2818 12.3692 66.404 11.6923C63.7099 11.0462 61.9648 8.98462 61.873 6.36923C61.7811 3.72308 63.3425 1.53846 65.9754 0.738463C66.6183 0.461539 67.2918 0.400001 67.9347 0.246155Z" fill="#EC1D25" />
    <path d="M34.9013 11.7538C33.6767 11.7538 32.4521 11.7538 31.2275 11.7538C31.0438 11.7538 30.8601 11.8154 30.7989 11.5077C30.5233 9.44616 28.5334 8.52308 27.5537 6.92308C27.2782 6.49231 25.5943 7.35385 25.5637 8.06154C25.5025 9.26154 25.1964 10.4923 25.9311 11.6923H22.5635C23.1758 10.4615 23.2064 1.84615 22.5635 0.615385H25.8699C25.9617 0.984616 25.5331 1.04615 25.5331 1.35385C25.5637 2.55385 25.5331 3.75385 25.5331 5.29231C27.2782 3.90769 28.8701 2.64615 30.4315 1.38462C30.7989 1.07692 30.2478 0.923077 30.156 0.676924C31.6561 0.738462 33.1868 0.307693 34.6563 0.892308C32.8501 2.03077 31.2887 3.47692 29.5743 4.70769C29.2069 4.98462 29.1457 5.16923 29.4824 5.53846C30.4009 6.55385 31.2581 7.6 32.1765 8.61539C33.0338 9.6 33.7379 10.7692 34.9013 11.7538Z" fill="#B2B1B1" />
    <path d="M76.4453 0.584616C77.6699 0.584616 78.6802 0.584616 79.9048 0.584616C79.3537 1.2 79.4456 1.81538 79.4456 2.43077C79.4456 3.81539 79.4456 5.23077 79.4456 6.61539C79.4456 7.07692 79.4456 7.50769 79.5068 7.96923C79.6599 9.29231 80.4559 9.84616 82.2621 9.96923C84.4358 10.0923 85.8135 9.56923 85.9053 8.33846C86.1196 5.78462 86.1196 3.23077 85.9053 0.615385C86.7625 0.615385 87.7422 0.615385 88.9668 0.615385C88.2626 1.13846 88.4157 1.75385 88.4157 2.33846C88.4157 4.18462 88.4463 6.03077 88.3851 7.87692C88.3239 10.1538 87.3748 11.2615 85.1093 11.6923C83.4561 12.0308 81.7723 12 80.1191 11.6615C77.9148 11.2308 76.9658 10.1846 76.8739 7.93846C76.8127 6.09231 76.8433 4.24615 76.8433 2.4C76.8433 1.81538 76.9045 1.23077 76.4453 0.584616Z" fill="#EC1D25" />
    <path d="M8.57215 0.646153C5.75559 0.523076 2.90841 0.615384 0.0306148 0.615384C0.612297 1.81538 0.612297 10.5231 0 11.6923H3.36763C2.66349 10.5538 3.0921 9.35385 2.93902 8.21538C2.84718 7.41538 3.15333 7.16923 3.94931 7.2C5.51067 7.23077 7.10264 7.26154 8.664 7.10769C10.6233 6.92308 11.7255 5.6 11.6949 3.81538C11.6949 2.03077 10.5315 0.707692 8.57215 0.646153ZM7.65371 5.29231C6.88834 5.35385 6.12297 5.29231 5.38821 5.29231V5.32308C5.08206 5.32308 4.77591 5.32308 4.46977 5.32308C3.00025 5.32308 3.00025 5.32308 2.96964 3.87692C2.96964 2.36923 2.96964 2.36923 4.50038 2.36923C5.51067 2.36923 6.52096 2.36923 7.53125 2.4C8.44969 2.43077 9.09261 2.86154 9.09261 3.87692C9.12322 4.83077 8.51092 5.23077 7.65371 5.29231Z" fill="#B2B1B1" />
    <path d="M106.417 12C105.958 11.5385 105.346 11.7538 104.825 11.7538C101.886 11.7231 98.9472 11.7538 95.947 11.7538C96.498 10.4615 96.4368 1.78462 95.8857 0.615385H99.3146C98.886 1.07692 98.8248 1.56923 98.8248 2.09231C98.8554 4.33846 98.8248 6.58462 98.8248 8.83077C98.8248 9.32308 98.6717 9.87692 99.4983 9.87692C101.672 9.84615 103.876 9.84615 106.05 9.81538C106.172 9.81538 106.295 9.66154 106.417 9.56923C106.846 10.4 106.876 11.2 106.417 12Z" fill="#EC1C24" />
    <path d="M21.522 5.69231C21.5833 5.32308 21.369 5.04615 21.1547 4.8C20.6036 3.69231 19.7158 2.98461 18.4912 2.67692C18.3993 2.64615 18.3381 2.61538 18.2462 2.58461C17.3278 2.21538 16.4094 2.21538 15.4909 2.61538C15.4603 2.61538 15.3991 2.64615 15.3685 2.67692C13.5316 3.2 12.3376 4.4 12.0621 6.24615C11.7559 8.03077 12.0621 9.69231 13.8377 10.7385C13.5928 10.2769 13.5622 9.81538 14.1132 9.69231C14.6031 9.6 15.1542 10.0615 15.246 10.4615C15.3991 11.2308 14.6643 11.0154 14.2357 11.1077C16.0726 12.3077 18.2462 12.2769 19.9607 10.9846C21.6139 9.72308 22.2262 7.66154 21.522 5.69231ZM12.8274 6.70769C12.5825 6.70769 12.2764 6.58461 12.3988 6.27692C12.5825 5.84615 12.46 5.23077 13.0723 5.10769C13.4091 5.04615 13.5316 5.35385 13.654 5.63077C13.2866 6 13.5622 6.73846 12.8274 6.70769ZM16.1032 2.73846H16.1338C16.593 2.8 17.0829 2.67692 17.5115 2.86154C17.6033 2.89231 17.6952 2.95385 17.787 3.04615C17.5727 3.90769 16.838 3.66154 16.3175 3.56923C15.8277 3.47692 15.9808 3.07692 16.1338 2.76923C16.1338 2.76923 16.1338 2.76923 16.1032 2.73846ZM16.8074 10C15.2154 9.96923 13.8989 8.64615 13.9296 7.10769C13.9602 5.6 15.3685 4.27692 16.9298 4.30769C18.5218 4.33846 19.8076 5.66154 19.777 7.2C19.7464 8.8 18.4299 10 16.8074 10ZM18.981 11.0154C18.7055 11.1077 18.4606 10.8308 18.4912 10.6154C18.5524 10.0308 19.1341 9.93846 19.5321 9.72308C19.7464 9.6 19.9301 9.87692 20.0525 10.1231C19.8688 10.6462 19.4402 10.8615 18.981 11.0154ZM20.8791 6.70769C20.3281 6.70769 20.3893 6.21538 20.2362 5.87692C19.9913 5.26154 20.3893 5.13846 20.9097 5.10769C20.9404 5.16923 20.9404 5.2 20.971 5.26154C21.0628 5.44615 21.124 5.66154 21.2159 5.84615C21.2465 5.90769 21.2771 5.96923 21.2771 6C21.2771 6.30769 21.3996 6.70769 20.8791 6.70769Z" fill="#B2B1B1" />
    <path d="M90.7734 11.7538C90.7734 7.96923 90.7734 4.30769 90.7734 0.615385C91.6919 0.615385 92.7328 0.615385 93.6818 0.615385C93.6818 4.30769 93.6818 7.93846 93.6818 11.6615C92.794 11.8769 91.7531 11.6615 90.7734 11.7538Z" fill="#EC2028" />
    <path d="M18.7061 7.50769C18.6755 7.90769 16.4713 8.98461 16.5019 8.89231C16.6243 7.81538 15.4916 8.43077 15.2161 7.93846C15.0018 7.56923 14.9711 7.2 15.3079 6.86154C15.5528 6.61538 15.7671 6.33846 16.0733 6.15385C16.41 5.93846 16.5325 5.29231 17.1448 5.6C17.604 5.87692 18.7368 7.16923 18.7061 7.50769Z" fill="#B2B1B1" />
</svg>